<svg width="463" height="413" viewBox="0 0 463 413" fill="none" xmlns="http://www.w3.org/2000/svg">
<g opacity="0.05">
<path d="M209.39 148.587C209.39 148.587 250.124 125.421 265.519 129.49C280.915 133.559 313.089 208.415 315.312 233.304C317.535 258.193 285.337 284.528 263.136 283.059C240.935 281.589 245.72 263.972 264.534 259.127C283.347 254.282 289.658 246.603 288.004 234.963C286.345 223.309 264.135 152.255 255.797 151.921C247.486 151.594 221.243 164.428 221.243 164.428C221.243 164.428 206.117 156.84 209.39 148.587Z" fill="#003A8C"/>
<path d="M250.095 148.382C250.095 148.382 244.979 136.958 214.899 151.709C214.082 158.442 220.024 159.193 220.024 159.193C220.024 159.193 240.496 148.426 250.095 148.382Z" fill="#1D39C4"/>
<path d="M226.126 127.736C206.294 156.698 135.363 187.065 135.363 187.065C135.363 187.065 58.0181 219.175 29.8518 204.421C29.8518 204.421 62.7743 311.649 93.5655 331.905C124.357 352.162 179.085 330.283 185.207 327.962C191.33 325.641 246.765 305.743 257.484 269.767C268.198 233.776 226.126 127.736 226.126 127.736Z" fill="#1D39C4"/>
<path d="M64.7749 280.579C64.7749 280.579 86.8049 266.008 101.115 287.494C115.425 308.98 117.859 313.11 136.677 309.953C155.5 306.81 170.862 323.887 155.138 336.277C137.621 343.456 72.0163 364.12 64.7749 280.579Z" fill="white"/>
<path d="M57.3015 254.813C58.1548 254.557 98.7139 240.189 107.474 228.727C110.748 224.442 112.027 219.982 111.243 215.478C110.404 210.692 107.711 207.561 103.226 206.149C91.4352 202.479 50.9478 220.431 50.1125 220.846C49.6461 221.074 49.2694 221.422 49.0378 221.804C48.7507 222.271 48.6604 222.769 48.8376 223.202C49.1549 224.002 50.2225 224.245 51.2528 223.747C51.4373 223.654 90.8533 206.214 101.165 209.42C104.71 210.523 106.752 212.935 107.422 216.819C108.052 220.466 106.736 225.111 104.12 228.548C96.4172 238.641 57.1723 251.507 56.9821 251.567C55.9234 251.895 55.1228 252.879 55.2193 253.764C55.2957 254.684 56.2323 255.131 57.3015 254.813Z" fill="#FFA940"/>
<path d="M100.2 228.642C102.71 225.616 103.677 222.36 103.089 218.999C102.493 215.491 100.318 214.058 97.0693 213.291C88.3542 211.258 53.2249 227.962 52.5998 228.358C52.2492 228.587 51.9763 228.867 51.7756 229.165C51.45 229.699 51.3767 230.294 51.6605 230.75C52.1174 231.466 53.2473 231.556 54.2182 230.953C58.0658 228.535 89.6079 214.514 95.4607 215.867C97.6174 216.36 98.8651 217.825 99.2919 220.324C99.7179 222.766 98.9424 225.828 97.1989 227.959C91.7917 234.538 57.8779 244.973 57.745 245.006C56.697 245.25 55.8232 246.175 55.8214 247.094C55.8092 248.002 56.6687 248.542 57.7424 248.295C58.3613 248.172 93.6436 236.618 100.2 228.642Z" fill="#E57905"/>
<path d="M94.9135 222.868C94.9006 221.618 94.2446 220.703 93.0742 220.283C88.835 218.749 57.6276 232.462 55.4372 233.644C55.0152 233.875 54.6755 234.189 54.4629 234.55C54.1659 235.018 54.0925 235.548 54.2861 235.993C54.6513 236.749 55.7222 236.93 56.717 236.402C62.163 233.472 89.1565 222.815 90.907 223.44C91.0239 223.477 91.1053 223.504 91.1093 223.783C91.1445 226.596 62.9421 238.031 59.2225 239.198C58.1842 239.517 57.4186 240.498 57.527 241.35C57.6204 242.215 58.5632 242.652 59.6016 242.333C61.1741 241.842 95.0172 229.407 94.9135 222.868Z" fill="white"/>
<path d="M207.967 167.819C212.262 180.58 199.644 197.236 179.794 205.027C159.943 212.819 140.366 208.798 136.071 196.037C131.777 183.277 144.394 166.621 164.244 158.829C184.119 151.044 203.676 155.072 207.967 167.819Z" fill="#FFA940"/>
<path d="M204.973 242.341C204.738 242.356 204.523 242.364 204.289 242.379C200.731 242.547 199.534 247.03 203.073 246.869C203.307 246.854 203.522 246.846 203.761 246.845C207.31 246.649 208.507 242.166 204.973 242.341Z" fill="white"/>
<path d="M197.318 221.196C196.534 224.096 202.04 223.824 202.828 220.937C203.616 218.05 198.106 218.309 197.318 221.196Z" fill="white"/>
<path d="M212.046 207.254C211.999 207.445 211.948 207.622 211.883 207.82C211.092 210.721 216.628 210.459 217.419 207.559C217.466 207.368 217.517 207.191 217.563 207C218.369 204.078 212.832 204.34 212.046 207.254Z" fill="white"/>
<path d="M230.633 217.401C232.741 217.292 234.319 216.168 234.814 214.452C235.486 212.092 231.952 211.884 230.215 213.443C228.051 214.628 227.721 217.566 230.633 217.401Z" fill="white"/>
<path d="M220.588 248.542C219.804 251.443 225.312 251.17 226.1 248.283C226.865 245.389 221.372 245.64 220.588 248.542Z" fill="white"/>
<path d="M217.446 227.251C217.399 227.441 217.348 227.618 217.283 227.817C216.491 230.717 222.028 230.456 222.819 227.555C222.866 227.365 222.916 227.188 222.963 226.997C223.769 224.075 218.232 224.336 217.446 227.251Z" fill="white"/>
<path d="M237.062 240.612C239.17 240.503 240.748 239.379 241.243 237.663C241.915 235.302 238.381 235.094 236.624 236.661C234.498 237.831 234.168 240.77 237.062 240.612Z" fill="white"/>
<path d="M158.394 258.701C163.081 268.107 156.107 280.847 142.85 287.166C129.575 293.492 115.033 290.982 110.351 281.59C105.664 272.185 112.638 259.444 125.895 253.126C139.151 246.807 153.707 249.295 158.394 258.701Z" fill="#E57905"/>
<path d="M208.081 285.053C214.122 280.622 233.036 302.903 239.756 310.193C245.067 306.373 248.939 303.443 248.939 303.443C248.939 303.443 220.449 265.925 200.324 277.472C180.205 289.033 209.836 327.936 209.836 327.936C211.368 328.503 216.488 325.764 222.537 321.946C217.122 314.42 201.946 289.537 208.081 285.053Z" fill="#FFA940"/>
<path d="M177.02 231.854C179.088 235.659 170.974 235.762 168.172 236.347C165.755 236.844 163.662 237.753 161.829 239.309C160.96 240.046 160.835 240.901 161.451 241.501C168.616 248.648 152.518 248.133 149.628 250.603C147.955 252.023 145.494 254.478 146.388 256.21C147.853 259.022 136.268 261.282 133.416 262.394C130.02 263.73 130.062 266.432 130.47 268.381C130.866 270.23 134.772 269.116 134.376 267.267C133.484 263.025 147.407 263.346 149.974 260.283C152.512 257.26 148.664 252.96 155.081 252.24C164.128 251.225 168.613 245.079 165.585 240.329C171.964 236.92 185.275 238.492 180.68 230.013C179.776 228.374 176.134 230.208 177.02 231.854Z" fill="white"/>
<path d="M111.225 133.393C67.0052 149.708 23.2847 178.612 26.7347 194.907C30.8528 214.524 104.109 191.112 131.124 179.797C173.953 161.866 216.857 135.193 213.211 122.8C209.57 110.42 173.257 110.507 111.225 133.393Z" fill="#003A8C"/>
<path d="M27.3601 191.079C23.2554 186.516 22.11 172.836 48.1471 155.348C47.3372 143.014 59.7372 135.602 65.662 136.128C67.5556 123.331 75.4788 115.403 88.1808 112.828C88.9784 107.023 98.9818 104.925 102.492 104.697C103.518 101.559 104.838 97.2195 102.992 94.0696C101.146 90.9196 113.229 88.5774 117.132 97.5503C117.824 99.489 123.749 100.015 128.171 98.353C132.593 96.6912 140.873 95.7782 139.452 101.801C150.482 96.5646 169.351 97.161 167.522 106.09C182.579 102.076 205.877 102.938 206.795 119.913C207.237 126.359 187.132 150.871 124.016 174.797C54.7713 201.04 34.5026 199.008 27.3601 191.079Z" fill="#F5F5F5"/>
<path d="M176.065 127.741C160.635 141.876 137.29 150.768 116.66 157.329C115.455 157.714 115.899 159.015 117.105 158.631C138.04 151.972 161.715 142.875 177.39 128.523C178.256 127.728 176.949 126.939 176.065 127.741Z" fill="#002329"/>
<path d="M125.618 136.326C141.545 130.238 164.886 120.147 168.666 105.18C168.926 104.194 167.057 104.121 166.797 105.107C163.162 119.472 140.408 129.118 125.152 134.95C123.94 135.426 124.402 136.788 125.618 136.326Z" fill="#002329"/>
<path d="M98.0148 157.685C82.5148 161.648 47.7981 165.658 48.3958 148.638C48.4319 147.606 46.3993 147.979 46.3585 148.997C45.7243 167.173 81.2411 163.571 97.9582 159.289C99.2554 158.954 99.312 157.35 98.0148 157.685Z" fill="#002329"/>
<path d="M109.243 134.393C110.498 134.045 110.56 132.509 109.306 132.857C93.5466 137.149 76.754 137.954 63.7099 133.307C62.6702 132.937 61.6624 134.444 62.6837 134.821C75.9614 139.544 93.1989 138.765 109.243 134.393Z" fill="#002329"/>
<path d="M117.092 129.914C121.838 128.071 126.184 125.527 130.424 122.908C131.51 122.243 130.57 121.14 129.487 121.818C125.378 124.345 121.206 126.809 116.622 128.592C115.443 129.046 115.895 130.375 117.092 129.914Z" fill="#002329"/>
<path d="M126.624 112.72C133.246 108.939 138.967 104.187 139.4 97.9867C139.479 96.9611 137.454 97.316 137.376 98.3416C136.982 103.967 131.576 108.144 125.63 111.538C124.476 112.206 125.469 113.388 126.624 112.72Z" fill="#002329"/>
<path d="M107.263 111.416C108.487 110.864 108.005 109.437 106.786 110.003C99.0971 113.53 90.3398 112.521 85.3684 108.703C84.549 108.083 83.1368 109.447 83.9375 110.074C89.3024 114.185 98.9698 115.209 107.263 111.416Z" fill="#002329"/>
<path d="M106.113 100.195C106.491 101.157 108.591 100.342 108.214 99.3805C106.885 95.9284 103.926 93.1918 99.4411 92.2706C98.21 92.0209 97.0827 93.665 98.3188 93.9293C102.33 94.737 104.941 97.1292 106.113 100.195Z" fill="#002329"/>
<path d="M115.064 106.76C116.527 105.749 117.944 104.725 119.144 103.495C120.018 102.605 118.642 101.761 117.749 102.659C116.656 103.771 115.412 104.682 114.083 105.595C112.992 106.34 113.973 107.504 115.064 106.76Z" fill="#002329"/>
<path d="M120.823 115.522C122.061 115.043 121.588 113.644 120.351 114.123C119.871 114.308 119.39 114.494 118.91 114.68C117.673 115.158 118.146 116.558 119.383 116.079C119.863 115.894 120.343 115.708 120.823 115.522Z" fill="#002329"/>
<path d="M69.5356 158.238C69.9946 158.09 70.5698 158.16 70.9624 158.255C72.1076 158.507 73.1519 156.951 72.0067 156.7C71.0905 156.499 70.0707 156.493 69.0544 156.812C67.7664 157.206 68.271 158.638 69.5356 158.238Z" fill="#002329"/>
<path d="M124.263 171.21C113.763 176.327 103.006 180.408 91.5443 182.196C90.3263 182.384 90.2751 183.792 91.4713 183.598C103.253 181.764 114.335 177.539 125.157 172.266C126.293 171.722 125.382 170.672 124.263 171.21Z" fill="#002329"/>
<path d="M77.3431 183.48C76.4646 183.79 75.5876 183.794 74.7336 183.805C73.4872 183.83 72.9165 185.423 74.1629 185.397C75.3862 185.366 76.5635 185.321 77.8165 184.882C79.074 184.456 78.5776 183.048 77.3431 183.48Z" fill="#002329"/>
<path d="M195.326 124.249C193.881 129.555 188.225 134.369 183.309 138.41C182.292 139.244 183.708 140.095 184.725 139.261C189.928 134.998 195.75 129.917 197.285 124.311C197.551 123.271 195.611 123.202 195.326 124.249Z" fill="#002329"/>
<path d="M175.853 144.441C175.211 144.688 174.569 144.935 173.945 145.175C172.716 145.648 173.184 147.033 174.413 146.56C175.055 146.313 175.697 146.066 176.321 145.826C177.55 145.353 177.082 143.969 175.853 144.441Z" fill="#002329"/>
<path d="M190.305 119.262C190.593 117.952 190.261 116.997 189.238 116.192C188.374 115.51 186.801 116.999 187.665 117.682C188.172 118.069 188.345 118.569 188.196 119.209C187.949 120.304 190.063 120.372 190.305 119.262Z" fill="#002329"/>
<path d="M372.07 228.717C346.94 224.74 318.672 226.163 315.919 233.837C313.165 241.511 344.131 249.804 368.997 253.05C395.645 256.522 421.191 255.325 422.798 249.228C424.415 243.142 407.342 234.3 372.07 228.717Z" fill="#E57905"/>
<path opacity="0.4" d="M371.152 232.922C357.144 230.705 341.391 231.494 339.865 235.78C338.329 240.054 355.583 244.675 369.447 246.491C384.299 248.43 398.536 247.757 399.432 244.362C400.328 240.966 390.811 236.033 371.152 232.922Z" fill="#E57905"/>
<path d="M372.791 223.37L361.039 220.976L358.161 235.75C358.161 235.75 358.475 239.971 369.08 241.727C369.08 241.727 369.08 241.727 369.077 241.738C369.125 241.746 369.161 241.751 369.209 241.759C369.257 241.766 369.293 241.772 369.341 241.78C369.341 241.78 369.341 241.78 369.343 241.769C379.975 243.385 381.867 239.501 381.867 239.501L384.745 224.727L372.791 223.37Z" fill="#E57905"/>
<path d="M321.417 181.845C320.296 181.619 319.169 181.349 318.036 181.035C300.871 176.328 287.521 163.396 283.181 147.274C274.895 116.493 293.815 92.6364 315.81 85.8301C337.07 79.2484 355.021 96.8476 355.772 97.5957L346.805 103.364C346.295 102.866 334.29 91.2397 321.313 95.2507C303.427 100.808 288.119 120.587 295.055 146.333C298.965 160.877 310.772 168.905 320.508 171.571C329.492 174.033 337.85 172.479 342.856 167.404L352.672 174.285C345.433 181.637 333.919 184.366 321.417 181.845Z" fill="#E57905"/>
<path d="M348.616 66.2246C348.616 66.2246 333.974 179.347 340.163 207.003C342.081 211.222 342.818 219.794 372.439 224.481C372.434 224.503 372.443 224.46 372.439 224.481C401.472 229.076 407.304 221.945 409.845 218.086C416.029 208.708 426.547 192.028 455.308 82.0086C440.439 93.461 353.354 77.6985 348.616 66.2246Z" fill="#E57905"/>
<path d="M404.381 60.4676C378.837 55.6097 350.361 56.1018 347.918 63.7574C345.487 71.4153 377.1 80.8329 402.347 84.9318C429.402 89.3265 455.139 88.9774 456.494 82.8755C457.846 76.7924 440.222 67.2834 404.381 60.4676Z" fill="#E57905"/>
<path d="M449.878 80.7828C451.337 80.4019 460.836 75.9951 453.971 68.3815C452.596 65.4389 441.384 67.8947 445.854 65.172C450.323 62.4493 451.563 54.0714 439.89 53.5327C438.29 52.1133 439.618 46.2379 428.098 44.6606C430.376 41.5002 429.323 39.4874 423.927 36.2408C418.531 32.9941 417.232 26.5228 413.269 28.8375C409.306 31.1522 405.744 36.9584 407.756 38.6127C401.798 36.15 394.254 35.1833 394.522 39.4835C393.964 43.2521 389.594 45.3022 385.461 42.654C381.328 40.0057 373.012 41.2374 379.493 49.3852C379.13 51.8382 371.715 50.0011 368.419 47.8969C365.11 45.7901 355.392 47.373 360.056 55.5653C357.256 56.1366 353.096 58.575 356.984 63.659C363.557 72.3037 427.254 86.7034 449.878 80.7828Z" fill="white"/>
<path d="M448.328 68.9697C448.328 68.9697 450.07 66.2273 443.159 65.3836C436.249 64.5298 425.833 71.5042 409.302 67.6883C392.772 63.8624 385.993 64.3902 384.936 69.2979C384.473 72.4426 383.421 72.7688 379.419 70.3385C375.416 67.9183 367.859 69.1893 367.37 72.5048C373.268 74.903 380.134 76.8343 384.355 77.5189C385.037 81.9701 384.065 86.6468 380.969 91.682C377.886 96.7197 376.613 105.36 382.07 106.997C387.526 108.634 390.308 101.104 389.609 94.4981C388.91 87.8918 390.663 78.262 393.625 78.5895C395.326 78.3942 397.441 77.7443 399.165 75.1225C400.888 72.5007 404.643 74.3431 408.074 76.1101C411.505 77.877 418.503 78.128 422.87 75.811C427.212 73.489 438.773 70.0968 448.328 68.9697Z" fill="black"/>
<path d="M371.979 49.6123C369.601 48.824 364.376 47.2353 361.482 48.8096C358.601 50.3864 358.664 56.6584 365.269 59.0699C371.873 61.4912 373.505 61.7252 375.842 63.8239C378.178 65.9227 386.895 67.568 388.141 63.6263C389.387 59.6847 388.755 59.4876 384.465 57.081C380.187 54.6867 375.788 50.8783 371.979 49.6123Z" fill="#612500"/>
<path d="M439.737 47.0215C438.431 45.6582 431.087 43.5626 425.744 45.9017C420.4 48.2505 417.96 49.054 414.067 48.5552C410.174 48.0564 408.693 51.3603 417.243 53.8751C425.793 56.3899 429.561 56.8741 432.563 54.8457C435.565 52.8172 444.88 52.409 439.737 47.0215Z" fill="#612500"/>
<path d="M391.409 42.2358C387.604 40.7889 382.375 39.2814 381.071 41.3963C379.767 43.5112 384.175 51.6434 391.586 52.889C398.997 54.1347 401.316 56.3633 404.421 55.4395C407.538 54.5181 408.264 54.0686 405.102 50.8586C401.956 47.6315 395.321 43.7242 391.409 42.2358Z" fill="black"/>
<path d="M405.935 35.7831C402.763 35.0317 397.957 34.1388 399.57 36.5331C401.184 38.9178 410.402 43.0725 413.105 42.5686C415.821 42.0575 413.887 37.681 405.935 35.7831Z" fill="#612500"/>
<path d="M449.16 80.3711C449.16 80.3711 446.484 75.8266 437.594 78.1962C428.705 80.5658 421.252 78.413 417.78 81.5783C418.867 82.8004 443.38 85.327 449.16 80.3711Z" fill="#612500"/>
<path d="M424.312 58.9525C422.074 58.9501 417.492 57.3089 416.474 58.6398C415.456 59.9708 418.204 62.3444 424.876 61.6377C431.537 60.9192 430.552 58.9457 424.312 58.9525Z" fill="#612500"/>
<path d="M428.668 23.4822C427.947 25.0891 426.408 26.2032 424.41 26.6967C423.622 26.8962 424.147 27.9526 424.936 27.7532C427.232 27.1829 429.062 25.8742 429.897 24.0264C430.187 23.3883 428.945 22.8416 428.668 23.4822Z" fill="#002329"/>
<path d="M421.338 29.4323C421.369 29.3969 421.421 29.3968 421.494 29.422C422.339 29.4465 422.138 28.3638 421.295 28.3293C421 28.322 420.761 28.3779 420.525 28.497C419.834 28.8266 420.647 29.7619 421.338 29.4323Z" fill="#002329"/>
<path d="M407.093 41.4811C404.676 41.9323 402.472 41.2634 400.116 40.4576C397.96 39.7242 395.668 39.8513 393.506 39.1533C392.726 38.9039 392.249 39.7304 393.027 39.9887C395.661 40.8442 398.399 40.8793 401.086 41.79C403.29 42.541 405.434 42.7979 407.606 42.4032C408.363 42.2471 407.848 41.3339 407.093 41.4811Z" fill="#002329"/>
<path d="M404.752 44.2337C402.862 44.326 400.977 44.142 399.124 43.5051C398.34 43.2328 397.856 44.1069 398.64 44.3792C400.707 45.0945 402.82 45.3407 404.937 45.234C405.745 45.1858 405.56 44.1855 404.752 44.2337Z" fill="#002329"/>
<path d="M375.885 50.7396C372.53 49.5155 369.445 47.8319 366.262 46.2967C365.51 45.9338 365.035 46.836 365.774 47.1965C368.958 48.7222 372.03 50.413 375.398 51.6394C376.187 51.921 376.673 51.0307 375.885 50.7396Z" fill="#002329"/>
<path d="M384.766 52.042C383.524 52.1059 382.301 52.0456 381.04 51.811C380.22 51.6618 380.071 52.6557 380.891 52.8049C382.261 53.0609 383.608 53.1353 384.965 53.0641C385.776 53.0246 385.591 51.9954 384.766 52.042Z" fill="#002329"/>
<path d="M416.866 62.5622C414.102 62.6704 411.163 61.9682 408.776 60.6015C408.087 60.207 407.304 60.9137 408.005 61.3104C410.691 62.8469 413.948 63.6749 417.052 63.5452C417.866 63.527 417.669 62.5326 416.866 62.5622Z" fill="#002329"/>
<path d="M447.3 52.697C444.162 52.8102 441.175 53.2754 438.334 54.1218C437.59 54.3469 438.1 55.3537 438.857 55.1311C441.604 54.3165 444.475 53.8587 447.498 53.7528C448.316 53.7135 448.117 52.6577 447.3 52.697Z" fill="#002329"/>
<path d="M434.406 46.1903C433.642 46.4183 432.851 46.5686 432.087 46.7966C431.335 47.0271 431.85 48.0587 432.614 47.8307C433.378 47.6027 434.169 47.4523 434.933 47.2244C435.685 46.9939 435.158 45.9598 434.406 46.1903Z" fill="#002329"/>
<path d="M434.681 56.3192C434.606 56.3041 434.532 56.2889 434.469 56.2763C433.633 56.1074 433.477 57.1641 434.314 57.333C434.389 57.3481 434.464 57.3632 434.526 57.3758C435.361 57.5549 435.518 56.4881 434.681 56.3192Z" fill="#002329"/>
<path d="M451.074 59.9999C450.276 59.4097 449.266 59.0592 448.271 58.8528C447.449 58.6803 447.298 59.6968 448.12 59.8692C448.893 60.0319 449.676 60.2972 450.292 60.7508C450.952 61.2435 451.724 60.4804 451.074 59.9999Z" fill="#002329"/>
<g opacity="0.4">
<path opacity="0.4" d="M413.503 248.574C410.052 249.439 406.481 249.999 402.828 250.342C402.031 250.416 402.204 251.466 403.026 251.397C406.794 251.047 410.479 250.489 414.024 249.592C414.777 249.389 414.267 248.383 413.503 248.574Z" fill="#E57905"/>
<path opacity="0.4" d="M396.252 250.942C395.35 250.794 394.452 250.87 393.595 251.014C392.803 251.151 393.323 252.168 394.115 252.031C394.739 251.921 395.432 251.856 396.099 251.968C396.926 252.111 397.08 251.076 396.252 250.942Z" fill="#E57905"/>
<path opacity="0.4" d="M331.852 229.882C330.431 230.16 329.122 230.634 327.702 230.912C326.912 231.071 327.437 232.096 328.215 231.935C329.635 231.657 330.944 231.183 332.364 230.905C333.154 230.746 332.641 229.723 331.852 229.882Z" fill="#E57905"/>
<path opacity="0.4" d="M323.186 233.648C322.52 234.105 322.415 234.813 322.911 235.504C323.374 236.155 324.431 235.573 323.982 234.925C323.916 234.826 323.94 234.669 324.03 234.602C324.638 234.177 323.809 233.216 323.186 233.648Z" fill="#E57905"/>
<path opacity="0.4" d="M336.207 236.158C335.905 235.468 334.69 235.778 334.991 236.468C335.511 237.622 336.483 238.522 337.364 239.518C337.9 240.119 338.943 239.565 338.409 238.953C337.595 238.033 336.677 237.208 336.207 236.158Z" fill="#E57905"/>
</g>
<path d="M444.854 124.321C444.854 124.321 410.371 116.185 406.774 144.979C403.189 173.775 398.37 185.619 381.842 185.638C365.315 185.657 346.33 199.214 353.011 215.382L353.024 215.384C357.951 217.476 364.732 219.557 374.231 221.468C405.612 227.783 411.432 221.773 413.912 218.168C419.129 210.561 428.66 198.489 444.986 124.775L444.854 124.321Z" fill="#874D00"/>
<path d="M420.454 164.341C419.044 173.915 410.004 180.079 400.265 178.11C390.526 176.14 383.771 166.781 385.18 157.207C386.589 147.633 395.63 141.469 405.369 143.439C415.108 145.409 421.863 154.767 420.454 164.341Z" fill="#612500"/>
<path d="M362.3 123.183C355.856 106.86 340.723 110.721 340.723 110.721C339.87 129.884 339.255 152.23 339.782 171.057C364.331 178.061 357.916 153.781 358.494 148.318C359.072 142.856 368.73 139.503 362.3 123.183Z" fill="white"/>
<path d="M398.325 107.553C396.446 109.772 401.019 112.636 402.899 110.418C404.777 108.21 400.203 105.345 398.325 107.553Z" fill="#FFD591"/>
<path d="M408.788 98.4605C408.663 98.6027 408.538 98.7449 408.426 98.8896C406.542 101.114 411.127 103.987 413.011 101.763C413.136 101.62 413.248 101.476 413.373 101.334C415.257 99.109 410.672 96.236 408.788 98.4605Z" fill="#FFA940"/>
<path d="M419.199 110.653C420.963 111.737 422.725 111.604 423.872 110.297C425.44 108.503 422.665 106.311 420.559 106.759C418.304 106.647 416.772 109.165 419.199 110.653Z" fill="#FFD591"/>
<path d="M408.609 118.766C410.373 119.85 412.135 119.717 413.282 118.41C414.85 116.616 412.075 114.424 409.969 114.873C407.714 114.761 406.182 117.279 408.609 118.766Z" fill="#FFD591"/>
<path d="M337.232 191.51C337.417 193.431 337.617 195.251 337.845 196.961C347.927 197.597 354.603 199.857 357.338 203.592C360.73 208.234 358.079 215.046 355.326 219.649C357.202 220.395 359.314 221.125 361.723 221.864C364.747 216.572 367.934 208.141 362.899 201.252C358.764 195.57 350.132 192.317 337.232 191.51Z" fill="#612500"/>
<path d="M392.032 136.851C390.56 139.361 387.624 135.638 386.296 134.563C385.155 133.644 383.878 133.045 382.33 132.825C381.599 132.718 381.056 133.01 380.925 133.536C379.323 139.773 373.913 132.086 371.462 131.746C370.047 131.551 367.753 131.408 367.068 132.532C365.962 134.363 360.551 129.895 358.88 129.027C356.91 127.993 355.354 129.115 354.367 130.099C353.437 131.038 355.469 132.392 356.399 131.453C358.549 129.312 363.295 135.905 365.981 135.85C368.63 135.797 369.75 132.262 372.448 134.951C376.244 138.748 381.391 138.325 383.068 134.976C387.308 136.55 391.109 143.371 394.39 137.79C395.03 136.713 392.673 135.766 392.032 136.851Z" fill="#612500" stroke="black" stroke-width="1.0424" stroke-miterlimit="10"/>
</g>
</svg>
