<svg width="406" height="406" viewBox="0 0 406 406" fill="none" xmlns="http://www.w3.org/2000/svg">
<g opacity="0.03" clip-path="url(#clip0)">
<path d="M454.333 430.625C454.333 436.382 451.953 441.904 447.716 445.975C443.479 450.046 437.733 452.333 431.741 452.333H70.2591C64.2672 452.333 58.5207 450.046 54.2837 445.975C50.0468 441.904 47.6665 436.382 47.6665 430.625V202.464C47.6641 199.156 48.4486 195.891 49.96 192.918C51.4714 189.946 53.6698 187.345 56.3872 185.314L237.128 50.2407C241.094 47.2762 245.975 45.6667 251 45.6667C256.024 45.6667 260.906 47.2762 264.872 50.2407L445.612 185.314C448.33 187.345 450.528 189.946 452.04 192.918C453.551 195.891 454.336 199.156 454.333 202.464V430.625ZM409.148 408.916V213.058L251 94.8742L92.8517 213.058V408.916H409.148Z" fill="black"/>
<path fill-rule="evenodd" clip-rule="evenodd" d="M251 269.333C262.23 269.333 271.333 260.23 271.333 249C271.333 237.77 262.23 228.667 251 228.667C239.77 228.667 230.667 237.77 230.667 249C230.667 260.23 239.77 269.333 251 269.333ZM251 310C284.689 310 312 282.689 312 249C312 215.311 284.689 188 251 188C217.311 188 190 215.311 190 249C190 282.689 217.311 310 251 310Z" fill="black"/>
<path d="M190 330.333H312V371H190V330.333Z" fill="black"/>
</g>
<defs>
<clipPath id="clip0">
<rect width="406" height="406" fill="white"/>
</clipPath>
</defs>
</svg>
